<svg id="Layer_2" data-name="Layer 2" xmlns="http://www.w3.org/2000/svg" viewBox="0 0 573.28 574.67"><defs><style>.cls-1{fill:#fff3c0;}.cls-2,.cls-6{opacity:0.5;}.cls-3,.cls-6{fill:#f7dd6d;}.cls-4{fill:#fadc32;}.cls-5{fill:#fffcee;}.cls-11,.cls-7{fill:#e0b500;}.cls-8{fill:#fff;}.cls-10,.cls-9{fill:#d1aa07;}.cls-9{opacity:0.2;}.cls-10{opacity:0.1;}.cls-11{opacity:0.3;}</style></defs><title>Lemon Twist Vector</title><path class="cls-1" d="M268.22,30.33L373,605s110.61-26.61,151.36-76.51,69.86-89.82,69.86-159.68-20-120.59-49.9-132.23S393,212.46,342.24,269.85,185.89,425.36,141,423.7s-103.12-52.39-99-153S112.76,86.24,195,55.28C249.2,34.91,246.7,38.65,268.22,30.33Z" transform="translate(-25.83 -30.33)"/><g class="cls-2"><path class="cls-3" d="M154.7,132.21c-2.49-21.83,54.26-51.77,77.34-53s36.8,3.12,44.29,40.54,34.31,168.41,34.31,168.41S157.2,154,154.7,132.21Z" transform="translate(-25.83 -30.33)"/><path class="cls-3" d="M308.45,297.19S98.57,280,89.83,252.59s19.34-100.42,43-95.43S284.75,276,308.45,297.19Z" transform="translate(-25.83 -30.33)"/><path class="cls-3" d="M300.66,304S112.29,277.54,83,283.78c-18.2,3.87-4.37,41.17,24.33,41.17S300.66,304,300.66,304Z" transform="translate(-25.83 -30.33)"/><path class="cls-3" d="M278.83,311.85S172,329.18,101.69,341.78c-41.79,7.48,8.49,57.5,37.42,44.91C206.47,357.38,278.83,311.85,278.83,311.85Z" transform="translate(-25.83 -30.33)"/><path class="cls-3" d="M282.78,316.42s-135.14,74.43-123.92,74,64.87-23.29,64.87-23.29Z" transform="translate(-25.83 -30.33)"/><path class="cls-3" d="M325,330.25s34.31,189.3,49.9,209.26,93.56,3.74,105.41-31.19S353.67,363.93,325,330.25Z" transform="translate(-25.83 -30.33)"/><path class="cls-3" d="M326.85,324.63S480.29,460.29,503.37,457.8s41.17-30.56,43.66-64.24,14.35-52.39-30.56-50.52S328.1,324,326.85,324.63Z" transform="translate(-25.83 -30.33)"/><path class="cls-3" d="M343.69,322.45s121.63-72.35,154.69-63,46.78,31.19,39.3,52.39-26.82,16.22-50.52,16.22S344.94,323.07,343.69,322.45Z" transform="translate(-25.83 -30.33)"/></g><path class="cls-1" d="M200.44,415S314,338.87,424.78,281.91c100.15-51.49,124.12-15,124.12-15-17.46-18.71-48.65-30.56-84.2-24.33s-105.41,26.2-164,78.59S200.44,415,200.44,415Z" transform="translate(-25.83 -30.33)"/><path class="cls-4" d="M268.22,30.33S142.64,47.8,76.94,135.12,20.39,344.7,41.18,381.29s82.33,86.49,161.34,31.6,128.9-153,268.62-177.14,118.92,148,114.76,170.49S552,562.59,373,598.35V605s137.23-12.47,192.95-121.42,34.1-213.73-12.47-247-125.58-54.06-196.27,1.66S195,404.57,154.29,405.41c-22.4.46-58.43,12.48-79.42-13.72C57.67,370.22,52.49,318.38,57,253.21,67,108.51,221.65,55.28,269.89,44.47Z" transform="translate(-25.83 -30.33)"/><path class="cls-5" d="M277.16,80.44s-17-38-88.15.62-50.52,44.29-47.4,59.88c-21.83-8.11-38,5-59.25,48s-11.23,76.1,3.12,78c-25.57,14.35-20,23.7-20,38.67s3.74,27.44,19.34,29.94C66.76,353.64,70.5,373,88.59,386.07s29.94,23.7,61.13,6.24c0,0-7.48,9.36,2.49,7.48S202,380.14,202,380.14,155.33,426,93.58,415.38,38.06,260.08,54.28,210.18s29-84.72,83-122.46C192.42,49.12,269.47,37,269.47,37S277.79,80.44,277.16,80.44Z" transform="translate(-25.83 -30.33)"/><path class="cls-5" d="M360.53,546c13.31,15.8,42.41,31.6,91.48,5.82s65.7-34.93,49.07-73.18c20.79-.83,54.06-20,59.88-66.53s0.83-72.35-12.47-77.34C559.3,299.79,561,266.52,521,254.88s-100.63-8.32-173.81,40.75S223.31,402.7,212.71,405.41C316.87,299,392.2,244.57,467,235.75,554.2,225.46,573.44,264,583.42,297.29S606.77,406.55,541,505.2c-48.24,72.35-168,93.14-168,93.14S360.53,546.78,360.53,546Z" transform="translate(-25.83 -30.33)"/><path class="cls-6" d="M352.51,290.86C297.15,330.62,228.1,394.7,228.1,394.7l1.56-.73c44.78-28.72,80.82-52.34,110.1-71.2A95.24,95.24,0,0,0,352.51,290.86Z" transform="translate(-25.83 -30.33)"/><path class="cls-6" d="M517.72,247.39c-17.46-8.73-56.1-9.7-119.34,15.8a120.84,120.84,0,0,0-13.11,6.39C367,290.68,350.1,311,341.11,321.9c27.71-17.84,49.3-31.36,66.42-40.82C470.67,246.16,535.18,256.12,517.72,247.39Z" transform="translate(-25.83 -30.33)"/><path class="cls-7" d="M179.24,396.67c-22.87,12.06-81.09,30.77-104,6.24S40.35,327.23,46.59,248.64C37.86,326.81,47,378.38,72,405.41S157.61,414.14,179.24,396.67Z" transform="translate(-25.83 -30.33)"/><path class="cls-8" d="M269.47,37C205.85,50.5,102.93,76.07,64.26,178.37,94.82,113.5,152.83,67.13,269.47,37Z" transform="translate(-25.83 -30.33)"/><path class="cls-8" d="M374.67,598.76c53.64-22.45,157.18-35.34,208.74-183.38C563.87,492.73,518.13,568.41,374.67,598.76Z" transform="translate(-25.83 -30.33)"/><path class="cls-9" d="M327.27,336.79c106-38.67,195.44-62.37,249.08,13.72-6.65-42.41-13.94-74.17-45.32-90.65C481.12,233.67,326.85,336.38,327.27,336.79Z" transform="translate(-25.83 -30.33)"/><path class="cls-10" d="M291.92,166.52c0,34.31-31,144.55-85.3,209.73,23.65-19.49,44.88-41.19,61-56.29,30.25-28.39,45.53-43.58,45.53-43.58S292.55,164.64,291.92,166.52Z" transform="translate(-25.83 -30.33)"/><path class="cls-7" d="M195.25,417.26C233.92,383.57,343.07,257,446.61,236.37s122.88,27.44,132.23,44.29c-22.45-26.82-33.06-40.54-82.33-43.66s-106.66,16.22-164,63.62S223.31,395.43,195.25,417.26Z" transform="translate(-25.83 -30.33)"/><path class="cls-11" d="M324.77,337.21c47.4-29.94,136-82.33,187.12-81.09S571.77,326,571.77,326s-10.14-62.93-52.81-65.7C486.94,258.2,410.85,286.06,324.77,337.21Z" transform="translate(-25.83 -30.33)"/><path class="cls-9" d="M259.07,230.76c-37.42-34.1-103.54-92.31-90.23-110.19S214.17,89.38,229.55,84c-39.92,24.95-56.55,36.18-40.75,64.45S258.66,230.34,259.07,230.76Z" transform="translate(-25.83 -30.33)"/><path class="cls-9" d="M110.63,188.35c-9.56,28.69-17.46,65.7,6.65,72.77s139.3,25.78,152.19,27c-134.73-32-149.28-28.28-155.52-44.08C103.21,216.84,109.79,199.57,110.63,188.35Z" transform="translate(-25.83 -30.33)"/><path class="cls-9" d="M86.51,301.45c5,11.64,6.65,18.71,55.3,14.14s113.1-8.73,113.1-8.73-127.24,6.65-145.12,4.57C93.35,309.52,88.17,306.44,86.51,301.45Z" transform="translate(-25.83 -30.33)"/><path class="cls-9" d="M98.57,363c9.15,12.06,29.52,20,44.49,15s106.87-53.23,106.87-53.23-96.05,47.82-116.85,47S107.3,367.15,98.57,363Z" transform="translate(-25.83 -30.33)"/><path class="cls-9" d="M371.35,315.59s94.39-45.32,121.84-44.08,37.42,14.55,38.26,25.37C515.22,290.64,470.73,277.75,371.35,315.59Z" transform="translate(-25.83 -30.33)"/><path class="cls-9" d="M363.45,333.88S484,350.1,512.73,351.35s32.43,15,25.78,43.66C532.27,373.8,497.34,353.84,363.45,333.88Z" transform="translate(-25.83 -30.33)"/><path class="cls-9" d="M337.66,348.44s113.1,111.44,121.42,132.65,7.48,33.27-31.19,50.73C442.87,505.2,412.1,435.76,337.66,348.44Z" transform="translate(-25.83 -30.33)"/></svg>